<?xml version="1.0" encoding="UTF-8" standalone="no"?>
<!DOCTYPE svg PUBLIC "-//W3C//DTD SVG 20010904//EN"
"http://www.w3.org/TR/2001/REC-SVG-20010904/DTD/svg10.dtd">
<!-- Created with Sodipodi ("http://www.sodipodi.com/") -->
<svg
   width="48pt"
   height="48pt"
   viewBox="0 0 48 48"
   style="overflow:visible;enable-background:new 0 0 48 48"
   xml:space="preserve"
   xmlns="http://www.w3.org/2000/svg"
   xmlns:xap="http://ns.adobe.com/xap/1.0/"
   xmlns:xapGImg="http://ns.adobe.com/xap/1.0/g/img/"
   xmlns:rdf="http://www.w3.org/1999/02/22-rdf-syntax-ns#"
   xmlns:xml="http://www.w3.org/XML/1998/namespace"
   xmlns:xapMM="http://ns.adobe.com/xap/1.0/mm/"
   xmlns:pdf="http://ns.adobe.com/pdf/1.3/"
   xmlns:dc="http://purl.org/dc/elements/1.1/"
   xmlns:a="http://ns.adobe.com/AdobeSVGViewerExtensions/3.0/"
   xmlns:x="adobe:ns:meta/"
   xmlns:sodipodi="http://sodipodi.sourceforge.net/DTD/sodipodi-0.dtd"
   xmlns:xlink="http://www.w3.org/1999/xlink"
   id="svg548"
   sodipodi:version="0.32"
   sodipodi:docname="/home/david/Desktop/temp/apps/mplayer.svg"
   sodipodi:docbase="/home/david/Desktop/temp/apps/">
  <defs
     id="defs630" />
  <sodipodi:namedview
     id="base" />
  <metadata
     id="metadata549">
    <xpacket>begin='﻿' id='W5M0MpCehiHzreSzNTczkc9d'    </xpacket>
    <x:xmpmeta
       x:xmptk="XMP toolkit 3.0-29, framework 1.6">
      <rdf:RDF>
        <rdf:Description
           rdf:about="uuid:0360068f-1539-481e-ac6e-1c0b071f31ee">
          <pdf:Producer>
Adobe PDF library 5.00</pdf:Producer>
        </rdf:Description>
        <rdf:Description
           rdf:about="uuid:0360068f-1539-481e-ac6e-1c0b071f31ee" />
        <rdf:Description
           rdf:about="uuid:0360068f-1539-481e-ac6e-1c0b071f31ee" />
        <rdf:Description
           rdf:about="uuid:0360068f-1539-481e-ac6e-1c0b071f31ee">
          <xap:CreateDate>
2003-09-15T18:15:58+02:00</xap:CreateDate>
          <xap:ModifyDate>
2004-03-29T09:23:09Z</xap:ModifyDate>
          <xap:CreatorTool>
Adobe Illustrator 10.0</xap:CreatorTool>
          <xap:MetadataDate>
2004-01-20T18:32:36+01:00</xap:MetadataDate>
          <xap:Thumbnails>
            <rdf:Alt>
              <rdf:li
                 rdf:parseType="Resource">
                <xapGImg:format>
JPEG</xapGImg:format>
                <xapGImg:width>
256</xapGImg:width>
                <xapGImg:height>
256</xapGImg:height>
                <xapGImg:image>
/9j/4AAQSkZJRgABAgEASABIAAD/7QAsUGhvdG9zaG9wIDMuMAA4QklNA+0AAAAAABAASAAAAAEA
AQBIAAAAAQAB/+4ADkFkb2JlAGTAAAAAAf/bAIQABgQEBAUEBgUFBgkGBQYJCwgGBggLDAoKCwoK
DBAMDAwMDAwQDA4PEA8ODBMTFBQTExwbGxscHx8fHx8fHx8fHwEHBwcNDA0YEBAYGhURFRofHx8f
Hx8fHx8fHx8fHx8fHx8fHx8fHx8fHx8fHx8fHx8fHx8fHx8fHx8fHx8fHx8f/8AAEQgBAAEAAwER
AAIRAQMRAf/EAaIAAAAHAQEBAQEAAAAAAAAAAAQFAwIGAQAHCAkKCwEAAgIDAQEBAQEAAAAAAAAA
AQACAwQFBgcICQoLEAACAQMDAgQCBgcDBAIGAnMBAgMRBAAFIRIxQVEGE2EicYEUMpGhBxWxQiPB
UtHhMxZi8CRygvElQzRTkqKyY3PCNUQnk6OzNhdUZHTD0uIIJoMJChgZhJRFRqS0VtNVKBry4/PE
1OT0ZXWFlaW1xdXl9WZ2hpamtsbW5vY3R1dnd4eXp7fH1+f3OEhYaHiImKi4yNjo+Ck5SVlpeYmZ
qbnJ2en5KjpKWmp6ipqqusra6voRAAICAQIDBQUEBQYECAMDbQEAAhEDBCESMUEFURNhIgZxgZEy
obHwFMHR4SNCFVJicvEzJDRDghaSUyWiY7LCB3PSNeJEgxdUkwgJChgZJjZFGidkdFU38qOzwygp
0+PzhJSktMTU5PRldYWVpbXF1eX1RlZmdoaWprbG1ub2R1dnd4eXp7fH1+f3OEhYaHiImKi4yNjo
+DlJWWl5iZmpucnZ6fkqOkpaanqKmqq6ytrq+v/aAAwDAQACEQMRAD8A9U4q7FXYq7FXYq7FXYq7
FXYq7FXYq7FXYq7FXYq7FXYq7FXYq7FXYq7FXYq7FXYq7FXYq7FXYq7FXYq7FXYq7FXYq7FXYq7F
XYq7FXYq7FXYq7FXYq7FXYq7FXYq7FXYq7FXYq7FXYq7FXYq7FUh8x+fvJPlpSde1yy05hv6U86L
Kf8AVirzb6BirA7L/nKT8nb3zHb6JbanMxuXEUeovA8Vp6jbKrPJwdanbkU4+9N8VetYq7FXYq7F
XYq7FXYq7FXYq7FXYq7FXYq7FXYq7FXYq7FXYq7FXYq7FXYq7FXYq7FUDq+vaHotr9a1jULbTbX/
AH/dzRwJt/lSFRiry3zP/wA5Wfk9onNLfUJtauE2MWnQs61/4yymGIj3VjiryTzP/wA5teYJy8Xl
ny/bWKbhbm/ke5kI/mEcfoqp9izYqw9/MX/OTv5k3Qs4Z9UZLgVS3h4aXbuhqev+jLIop3Y4qyPy
3/zhd551B1n8yazZ6Ukh5SJCHvbip3PL+6jqfESHFWO/85CfkPpf5ZWOg3Wk3dzfwagZ4b6e54fD
PGEZOCoq8VZS2xJO3XFX09+QXna48z+QdLmu5fWuUt0R5DTkWi/dSVp/lqaYq9MxV2KuxV2KuxV2
KuxV2KuxV2KuxV2KuxV2KuxV2KuxV2KuxV2KuxVZPcQW8Lz3EiwwxjlJLIwVVA7ljQDFXnXmf/nI
n8n/AC9zS58wwXtwm31fTgbxiR1HKINGD/rOMVeSeZ/+c3bJQ8Xlfy5JKd/TutSlEYHzgh5k/wDI
0Yq89m/Or/nJH8wpHg0D64sDfC0WhWjRolfG4AeVPplxVG6R/wA4o/nP5nuhf+ZruHTnk/vZtRuW
u7or22iMwPyaQYqm2uf843eVfJN1ax6zdXGttPEXDn/Rbd2BowCRkyApt/u3vhConT18vaKANI06
2snVeHqxRqJSvg0tObfScNqi9P8AOV9puqW2o27VltpBIFJ2YA7qfZhscFq+mLHzDZ6hp9vf2jcr
e5jWWJu9GFaH3HfGleUf85PaSPMH5TakyrzuNJki1GAUqaRHhL90MjnCQrz3/nDrzNSK90eRv955
w6g/yXC0A+h0Y5FX1firsVdirsVdirsVdirsVdirsVdirsVdirsVdirsVdirsVYh5n/N78svLHNd
a8x2VvMn27VJPXuB84IPUl/4XFXkfmf/AJzV8k2fOPy9o95q8q7CWdks4D7g/vpD8igxV5fqv/OU
353ea7lrHy1bR2BeoSDS7Vrq5KnxaUTmvuiLiqRat+WH56eYvTvvOU93bxy1Nu+t3EpJI+0qQj1X
SlehVRhAVG6f+SHlq2+LVdVnvG2Ijt1S3UU6qxb1mYfLjjSsq0nQ/IuhzJLY6HaO8ciyg3SfWjyQ
g9bj1CAabgbYVfVuhaxpmoaLZX1gFS0uIleKJQAEFN0oKD4TtkaVEyX6L0w0rBfzZ0sa75Un9Icr
ywrc21Op4j40/wBkldvGmGlfM8l+PHIqhpNQ98Veu/kn50e4srjy/NJWS1rPZgnf0mP7xR/qua/7
LJwQyXzr5y8kWWmXum+Y9atbSO7gkt57ZpVMxjlUo1IV5SHY/wAuTNK+Yf8AnHnWzpP5mQ20cnOG
+jlh5qCAfTHqhwDQ/Zjbr45Sl9/Wswntoph0kUN94xVUxV2KuxV2KuxV2KuxV2KuxV2KuxV2KuxV
JfMPnXyh5bjMmvazZ6YKcgtzPHG7D/IRjzb/AGIxV5P5n/5zB/KrSuceki816cbKbeIwQ195Lj02
+lUOKvJ/MP8AzmZ+YOqS/VvLWj2ml+q3GIsHvbmp2AWvpx1/55nFWHaiP+cgvPNf05f6gLSQ8JY7
yb6lbivc2i+nUf6sRw0qrpX5E28fB9c1kbE+pb2KVqvYrPLSn/IrGlfRX5df844/kmmj2WrJpsms
yTIG9XUpjKA42dTFH6UJ4sCN0wK9d0zS9D0e1FppVlb6far9m3tYkhjFOlEjCjFWPfmVpK655Vuo
IBW+tx9YsyOpdBuv+zWq/OmGlfL8uoMerYFQsl8PHFXq35JediY7ry9O+6VubKp7GglQfTRgPnko
q9Qkv3bpllISnWfM2kaRB6+rajb6fDQkPcypEDTw5kV+jCr5P87+avJ9t5hvv0Nfi904y8oPQR9g
4DFRzEakIxI+10ykpYfdeeJCaWlsDRvtTMSGX/UTjQ/7I4FRul6H+aetkNp1peRROCBMo+pxlG6j
1W9Lmv8AsjirLNB/5xr8zXpV9SvorZCalLdGnb5Fm9NAfpOKvXvy9/ILSfLl6Ly1Sa5vivAzykSO
qt9oIsaqi18TU++KvofSLea306GKbaRQajwqSafjiqMxV2KuxV2KuxV2KuxV2KuxVCanq+k6Vatd
6pewWFqv2ri5lSGMU8XcqMVeYeZ/+cpPyc0Lmias+sXKf7o0yJpq/KZ/TgP0SYq8k8z/APObmqSc
4/K/l2G3HRLrUpWmYjx9GH0gp/56HFWCX/5if85I+ehVL3UIbGZS8QtAumWzRnssw9D1Bv8AtO2N
KnPkz/nEfzt5niXVNV1yysbWdjzkUyXlyWBo3Jf3S1/56Yq9i8sf84eflbpfCTV3vNenG7LPL9Xg
J9o4OD/fIcVZ7qP5Y+UdP8r3lh5Z0ez0u69PlBJbQokjunxKryAc35U4/EThCvnq51q4LEMSCNiD
sQcbVL5dSc9WwK9P/JDzt6U915enk+GatzZ1P7YAEiD5qA30HCFery6p75ZwoQkmosemGlfNv5qa
NJovmqf0UItL4G6tgoNByP7xf9i34UyuQopec3fmbS4KepdxksCVCH1Dt2Pp8uJ/1qZFUHp35oza
NqlvqekwM91bHnGZzwTl0KsqFiysDQ0ZcIKptc/mh+efnJimnz3aW7Vomlwm3jWv/F6jn/wUmEyK
t6X+Qv5g63cfWNWnS2eTeV5pGurjf2TkD9L5FXonl7/nF3RI2Q6lNcX8ndCwgjb/AGEfKT/h8Ver
+WPyP0TSgrWOlQ2jD/d3pqkn0yPylOKs5sfINjDQyla9wo5H/gnr+rFU8t9B0uClIQ7D9qT4vwO3
4YqjlVVUKoCqOgAoMVbxV2KuxV2KuxV2KrZJI4o2kkYJGgqzsQAAO5JxVgHmf8/vyi8uBlvvMlrP
cLX/AEaxJvJOQ/ZPoCRVP+uRiryTzP8A85uaPFzi8seXZ7puiXOoyrAoPj6UXrFh/s1xV5zc/n5/
zkT59ne18urPEjGjW+hWbEr85qTSpSvXmMVVtM/5xe/PLzdcLfeZbhbJn3a41e7a5uCp8FjM7V9n
K4q9K0T/AJwq8r2Vq8ur6zc6vfKjNDBEi2dsz0+FX3llK17q64qxezsPLfl+T09N0m3sbm3LJ6oj
BuFNaMpmflL97ZK1buNfmevxHBavQvyT88tBqdxoNzJ+6vQZrSvaZB8YH+sgr/scVewS6p75LhVB
y6p74aQ+cPzf0v8ARHmiS6hFLPU63EdOgkJ/er/wXxfTkZCkvP5L/wB8iqlbebl0HU4NQ+sJDc2c
iSCNm+LY9Cg+MgjY0GEK9A17/nLDy9AGTRNHub6WlPVuXW3jr4gL6rsPmFyfGimAaj/zkB+bvmWZ
rXRUFpy/3RptsZZae7v6zj5rTImZSl0f5Xfm55rnWfWZZatus2qXLSOK+CAyyL8uIyNqzfQP+cXI
zxfV7+aY7Fo4FWBR7cn9RmHyUYq9U8sf848+V7Dg9vo0TuNxNMhmaviHuC1P9iMVej6f+XNtEq+r
wUKKBaF9h2p8K4qyC18s6VAAOBkp/MaD7loMVTKKCCFeMUaxr4KAP1YqvxV2KuxV2KuxV2KuxV2K
pb5m1+y8u+XdT16+DtaaXbS3c6RgF2WFC5VASByalBU4q+Pdf/5y0/NzzJfyWPlOyi0xJWItYbS3
N7elPAtIJFY07rEMVS6P8nf+clPzEkWfXhfC3c8lk1y6aGNCd9rZi0ifJYsVUbT8h9HsJZI9e1Wa
a4j+CS3tUWEJIpIdS8nqlhX/ACVw0rJbHyx5C0jey0a3aTY+rcA3Lcl6MpmMnE/6tMKvVvyg89rF
rz6NctS3v1rb1OyzRioA/wBZdvmBgKvZpL+NemNKhZdT98NK+dvzo0oaZ5lOpQrS01Wspp0E609U
f7Kob6TgIV5tJqHvgVbZ69c2F9Be2z8Li2kWWJvBlNRir6Ef80fJ0WjWuqajrFrYR3UQlWGaZBKC
R8SiOvNip22GXWEMC8wf85R+QLHkmlw3esTCvFkT0IT83mo4/wCRZwGYV5F57/PrzF5zjj0+LSLa
1gWTnbKnqz3IcgrQOCinr09PIGVpSWw8hfmn5g3+pzwQSAB2uCLSMr2rGeBb6FORVmugf84w6rcc
X1bUeC/tRWkZNflLLwH/AAhxV6f5Z/5xr8pWpVv0cb6QH+9uS0//AAS/BD/wuKvUtG/K21s4ViSG
K2hXpEoCqPkkYVfxxVk1l5P0u2AqC/iFART92/44qmtvYWdv/cwoh/mA3+874qr4q7FXYq7FXYq7
FXYq7FXYq7FXYq7FUu8yaJb675e1PRLn+41O1mtJT4LPGYyfo5VxV8c/84ka7P5d/Nu+8uXxMJ1O
2ntJITtS7s29UV/1USUfTir7Pe9jXDSvn/8APHSvqOvR6vAKWupj96B0WeMAN/wa0PzriQry2S/H
jgVTh1me0uYrm3cxzwOskTjqGQ1U/eMVfTHl7zXHruh2eqQUpcxgyKD9iQbOn+xYEZaAh2q+YNN0
y3+s6pfQWFv/AL+uZUiT/gnKjJK8Y/Nr85Pyw1HQZtMt9QfUdQR1ktntImdEkU0NZH9NCGUkfCxy
EiFeB3fnk1YWttWh+GSZtivuif8ANeVpRGn6T+ZfmAqdOsLkQsaxyxp9XjFewnfhX6XxVlmh/wDO
OHm3UXEup3kVqHPJxErXMlT15H92lffkcVeleW/+cYfLMLKbuKfUphQlZnPGvtHAF29mY4q9X8u/
k7pumRhLOwgskPX00SGvz4AufpOKswsfI+nW9C5qw/kUA/8ABHkcVTi30fTYPsQKWH7TfEf+Griq
MxV2KuxV2KuxV2KuxV2KuxV2KuxV2KuxV2KuxV2KuxV8Lfm9C/5ef85JS6zCDHatfW+tJxrV4rgh
7kf7KT1VxV9btqfqKGRuSsKqwNQQe4y6kMX/ADB06PWvKt9azOkTovrW8shCqsse61Zthy+yT4HE
jZXyld+Y9Ng/vruNTUigPNgR2KpzZfpGUpSS6882woLeCSUkHkXIjAbtSnqch92Ko7RPPH5tXtg2
leWnvIbJ3LyJp0bj42ABYz/E6dB0cDDZVMrD8jvzI1+6+tavMsMsm8kl1M1zcEfJPUr9LDAr0Hy/
/wA4uaUhRtTubi9f+QUt4z/sV9ST/hsVer+WPyJ0HS+DWWkQ27LQiYxj1B/z1l5yHFWe2P5f2UVD
MVqOyjmf+Cf+mKp5b+X9KgApD6hHeQ8vw+z+GKpgkaIoVFCqOiqKD8MVbxV2KuxV2KuxV2KuxV2K
uxV2KuxV2KuxV2KuxV2KuxV2KuxV2KvlP/nN/wAvxCXyx5iSgmdZ9Pn/AJiqETRfQC8n34qxTR/M
/wDzkvrvlLTP8NaNKmkJbJbW+o2tujSTrCvpFy87P8RKmpRRvkuIqxHW/wAsPz41mcvrVle3soO6
3V5C/EjsFeb4aeFMaKpZ/wAqM/NX/qwv/wAj7b/qrg4Sqpbfkd+b6zK9t5cnllX4gImglI96K7U+
eNKyGPyF/wA5ORqEj0/WkRRRVElAB7DlgVEJ5T/5yrQcUt9eVfASkD/ieKqkem/85V25Kpd6vCw2
ZRfxIQR2I9UYaKqn1f8A5yx/6uOsf9xGL/qtjwlW0s/+ct5DSK712ZupWK9WQgeJCStjSr/0Z/zm
B/P5j/6SG/5rwK79Gf8AOYH8/mP/AKSG/wCa8VU2tf8AnLNWKtqGsqwNGVtRjBBHYgzbYaKu+r/8
5Y/9XHWP+4jF/wBVseEq2ln/AM5byHjFd67M3UrFerIQPEhJWpjSr/0Z/wA5gfz+Y/8ApIb/AJrw
K79Gf85gfz+Y/wDpIb/mvFVM23/OWSkhtQ1lWGxU6jGCD4EGbDRV31f/AJyx/wCrjrH/AHEYv+q2
PCVbSz/5y3kNIrvXZiNyIr1ZCB7hJWpjSr/0Z/zmB/P5j/6SG/5rwK79Gf8AOYH8/mP/AKSG/wCa
8VUzbf8AOWSkq2oayrDYqdRjBB8CDNhoq76v/wA5Y/8AVx1j/uIxf9VseEq2ln/zlvIaRXeuzN1I
ivVkIHuElamNKv8A0Z/zmB/P5j/6SG/5rwK79Gf85gfz+Y/+khv+a8VZP/zjJ+efnK882XGgeaNT
n1bTbmBpoZrkmWaCZHRfhc/EUZX3U+xHeqr63RldQ6kMrAFSOhBxVvFXYq7FXzX/AM5vf8ot5a/5
jpv+TOKvSf8AnG9lH5JeVhX/AHRN/wBRMuKof8zuelapFex7W18DUjoJUoGH0ih+/JAqwv8AxMf5
seJUy8veeBp2sW1zI37gNxnH/FbbN93XElXuayxsoZWDKwqCNwQcirfNfHFXln5m89K1WO8Ta2vg
TUdBKlAw+kUP35IFWGf4mP8ANjxKmflzzwunaxbXEj/uOXCcf8Vts33dcSVe5LLGyhlYMrCoI3BB
yKt818cVeV/maX0nVo7tNra+Umo6CVKBx9IIP35IFWG/4mP82PEqZ+W/PC6drNtcSv8A6Py4XH/G
NtmP0dfoxJV7kJEIBDAg7gjpTIq3zXxxV5X+ZhfSdXS7Ta2vgWB7CVdnH07HJAqw3/Ex/mx4lTTy
154XT9atp5X/ANHLencf8Y32J+jr9GJKvcRIhAIYEHcEdKZFW+a+OKvKvzLL6RrCXSbW1+pcEdBK
tA4+mob6ckCrDv8AEx/mx4lTXyz54TT9atp5Xpbs3p3H/GN9if8AY/a+jElXuAkQioNQcirfNfHF
X5+f846f+TFX/mFk/wCTkeKvvrSf+Obbf8Y1/ViqKxV2KuxV81/85vf8ot5a/wCY6b/kzirOf+cd
5yv5M+WF8IJv+omXJAKyTz9pL655Xu7SJeV3GPXs/H1YwSFH+uKr9ONK+Z/03/lZFWv03/lYq+gv
yg85DW/Ky2zvyu9LIt5RXcx0rC3/AAI4/wCxyQVnP1k4aVjn5gaS+ueV7u2iXldwj6xaePqRgniP
9Zar9OAhXzR+m/8AKyKtfpv/ACsVfQf5RechrnlZIJH5XmmEW829SUpWJv8Agfh+jJBWcfWThpWN
/mFpL655Wu7eJS13APrFoB1MkYJ4j/XWq/TgIV80fpv/ACsirv03/lYq+hPyj85DXPKscLvyvNMI
tph3KAfum+lfh+anJBWb/WThpWNfmJpL635WuoIlLXluPrFpTqXjBPEf661XAQr5p/Tf+VkVd+m/
8rFX0N+UvnIa75VjjkfleacRbT16lQKxN9K7fMHJBWa/WThpWM/mNpD635VuoYVLXlsPrNoB1Lxg
1Uf661Ue+AhXzV+m/wDKyKu/Tf8AlYq+h/ym85DXfKkSO/K804i1nFdyqj90/wBKbfMHJBWafWTh
pXwh/wA46f8AkxV/5hZP+TkeQV99aT/xzbb/AIxr+rFUVirsVdirwX/nMDyd5h1/yPpl5o1nJfDS
btpb2GBS8qwyRlfUCL8TKrAcqdK16A4q+ePLX5w/nT5a0S10PSTJBp9irJbxNYI7KGYuas8ZY/Ex
64bVkfk787P+cgvN2tnRdG1G2a/EbylJba2jAWMgNuY+u+NqiLv8o/z1urqa6ntNOM07tLKVlCAs
5LNRVIVdz0ApjSqX/Kmvzv8A+WPT/wDkf/zdjSpv5b8j/wDOR/lu5luNFFhaSzp6cp9SOQMoNRVZ
ea1B70rirIPV/wCcuv8Als07/gLT/qnh3V3q/wDOXX/LZp3/AAFp/wBU8d1YZc/lH+elzcy3M1np
xmndpJCsoQFnPI0VSFG56AUwUqn/AMqa/O//AJY9P/5H/wDN2NKm/lvyR/zkh5auJrjRRYWks6CO
Y845Ayg1Hwyh1696YqyD1f8AnLr/AJbNO/4C0/6p4d1d6v8Azl1/y2ad/wABaf8AVPHdWGXP5Rfn
nc3EtxLZ6cZZnaSQrKEHJzU0VSFUVPQCmClU/wDlTX53/wDLHp//ACP/AObsaVOPLfkn/nJHy1PN
PogsLSS4UJN8ccgZQaiqyh1qPGmKp/6v/OXX/LZp3/AWn/VPDurvV/5y6/5bNO/4C0/6p47qwy4/
KL887i4luJbPTjLM7SSEShRyY1NFUhRv2AwUqn/ypr87/wDlj0//AJH/APN2NKnHlvyT/wA5I+Wp
pptEFhaSXChJvjjkDBTUfDKHG3jiqf8Aq/8AOXX/AC2ad/wFp/1Tw7q71f8AnLr/AJbNO/4C0/6p
47qwuf8AKH88p55J5LPTvUlYu/GUKOTGpoqkKB7AYKVZ/wAqa/O//lj0/wD5H/8AN2NKnPlvyV/z
kl5alnl0T6haPcqqz/HHIGCmq1WUOKip3piqh55/Mb/nJbyRY217r2oWccF1KYYTFDayEuFLbgR+
Axsqxb/nHLy7q/8Ais6y9s8enLAYkuHUqskjyIQEr9qgU1I6YFfdGk/8c22/4xr+rFUVirsVdirs
VY5eeRdHuLh5kUReoSzIFqKnrTcUxV8jf846RKn5/wCpQDcBNRRR48ZR/TCFfYL24B3XJKt9BP5c
UO9BP5cVd6Cfy4q70E/lxV3oJ/LirvQT+XFXegn8uKu9BP5cVd6Cfy4q70E/lxV3oJ/LirvQT+XF
Xegn8uKu9BP5cVd6Cfy4q70E/lxV3oJ/LirvQT+XFXegn8uKu9BP5cVd6Cfy4q2IFJFFxV89/wDO
ZsYj8p+XlpQtfyEfIQn+uRKWR/8AOO+nW995M0WOUUItlo4A5D7R2rgV73FEkUSRIKIgCqPYYqux
V2KuxV2KuxV8Tf8AOO3/AK0Xf/PVP+JnCFfY9x9ofLCqlhV2KuxV2KuxV2KuxV2KuxV2KuxV2Kux
V2KuxV2KuxV2KuxV2KuxVdH9tfnir54/5zX/AOUZ8tf8xs//ACaGRKsp/wCcZ/8AlEdF/wCYYfqf
Ar3PFXYq7FXYq7FXYq+Jv+cdv/Wi7/56p/xM4Qr7HuPtD5YVUsKuxV2KuxV2KuxV2KuxV2KuxV2K
uxV2KuxV2KuxV2KuxV2KuxV2Kro/tr88VfPH/Oa//KM+Wv8AmNn/AOTQyJVlP/OM/wDyiOi/8ww/
U+BXueKuxV2KuxV2KuxV8Tf847f+tF3/AM9U/wCJnEK+x7j7Q+WSVSwq7FXYq7FXYq7FXYq7FXYq
7FXYq7FXYq7FXYq7FXYq7FXYq7FXYquj+2vzxV88f85r/wDKM+Wv+Y2f/k0MiVZT/wA4z/8AKI6L
/wAww/U+BXueKuxV2KuxV2KuxV8Tf847/wDrRd/89U/4mcQr7FuT8Q+WTCqPLFDuWKu5Yq7liruW
Ku5Yq7liruWKu5Yq7liruWKu5Yq7liruWKu5Yq7liruWKu5Yq7liruWKu5Yqujb94vzxS+ev+c1v
+UZ8tf8AMbN/yaGRKsq/5xn/AOUR0X/mGH6nwK9zxV2KuxV2KuxV2KviX/nHj/1oq/8Anqf/ABM4
hX2HdH4l+WTCqPLFDuWKu5Yq7liruWKu5Yq7liruWKu5Yq7liruWKu5Yq7liruWKu5Yq7liruWKu
5Yq7liruWKu5YquiP7xfnir58/5zV/5Rny1/zGzf8mhkSllf/OM//KI6L/zDD9T4Fe54q7FXYq7F
XYq7FXxL/wA48/8ArRV/89T/AOJnCFfYF2fiX5ZIIUK4VdXFXVxV1cVdXFXVxV1cVdXFXVxV1cVd
XFXVxV1cVdXFXVxV1cVdXFXVxV1cVdXFXVxVfEf3q/MYq+fv+c1P+UZ8t/8AMbN/yaGQKWWf84z/
APKI6L/zDD9T4Fe54q7FXYq7FXYq7FXxJ/zj1/60Tf8Az1P/AImcIV9fXjfEvyyQQh+WFXcsVdyx
V3LFXcsVdyxV3LFXcsVdyxV3LFXcsVdyxV3LFXcsVdyxV3LFXcsVdyxV3LFXcsVdyxVfC371PmMV
eA/85p/8oz5b/wCY2b/k0MgUst/5xn/5RHRf+YYfqfAr3PFXYq7FXYq7FXYq+JP+ce//AFom/wDn
qf8AxM4Qr68vT8a/LJhCG5YVdyxV3LFXcsVdyxV3LFXcsVdyxV3LFXcsVdyxV3LFXcsVdyxV3LFX
csVdyxV3LFXcsVdyxV3LFV8Lfvk+YwK8E/5zS/5Rry3/AMxs3/JoZApZb/zjP/yiOi/8ww/U+BXu
eKuxV2KuxV2KuxV8R/8AOPn/AK0Rf/PU/wDiZwhX11fn41+WTCELXCrq4q6uKurirq4q6uKurirq
4q6uKurirq4q6uKurirq4q6uKurirq4q6uKurirq4q6uKqkB/fJ8xiVeC/8AOaH/ACjXlv8A5jZv
+TQyspZf/wA4z/8AKI6L/wAww/U+BXueKuxV2KuxV2KuxV8Rf84+/wDrRF//AK2p/wDEzhCvrjUD
8afLLAhC8sKu5Yq7liruWKu5Yq7liruWKu5Yq7liruWKu5Yq7liruWKu5Yq7liruWKu5Yq7liruW
Ku5Yq7liq+A/vk/1hgKvCP8AnM//AJRry5/zGzf8mhkClmH/ADjP/wAojov/ADDD9T5FXueKuxV2
KuxV2KuxV8Rf84+/+tD3/wDran/xM4Qr621E/GnyyYQhK5JXVxV1cVdXFXVxV1cVdXFXVxV1cVdX
FXVxV1cVdXFXVxV1cVdXFXVxV1cVdXFXVxV1cVVLc/v4/wDWGAq8K/5zO/5Rry5/zGzf8mhkClmH
/OM//KI6L/zDD9T5FXueKuxV2KuxV2KuxV8Rf84/f+tD6h/ran/xM4Qr601I/GnyywIQdcKurirq
4q6uKurirq4q6uKurirq4q6uKurirq4q6uKurirq4q6uKurirq4q6uKurirq4qqW5/fx/wCsMSrw
z/nM3/lGvLn/ADGTf8mhlZSzH/nGf/lEdF/5hh+p8ir3PFXYq7FXYq7FXYq+IfyA/wDWhtQ/1tT/
AOJnCFfXVxbLOwJYrQU2yYKFH9HJ/vw/hhtXfo5P9+H8MbV36OT/AH4fwxtXfo5P9+H8MbV36OT/
AH4fwxtXfo5P9+H8MbV36OT/AH4fwxtXfo5P9+H8MbV36OT/AH4fwxtXfo5P9+H8MbV36OT/AH4f
wxtXfo5P9+H8MbV36OT/AH4fwxtXfo5P9+H8MbV36OT/AH4fwxtXfo5P9+H8MbV36OT/AH4fwxtX
fo5P9+H8MbV36OT/AH4fwxtXfo5P9+H8MbV36OT/AH4fwxtV8VikcgfkW47gY2r5f/5y/wDOmmX+
paP5WsZUnudNMtzqRX4vTklCrFFUHZuIZmFO65Apexf84/aTc6X5e0mzuFKzRWyCVT1VzGWZT/ql
6ZFXsuKuxV2KuxV2KuxV8RfmL+RH5seUfOuo635ZaV7K7uZprHUrG6FtOsc7M/pP8cThgDQ8djiq
TQal/wA5L2SGBL7WXFeVZJ/rB3/y3aQ/RXDaqn+IP+cm/wDls1f70xtXf4g/5yb/AOWzV/vTG1d/
iD/nJv8A5bNX+9MbV3+IP+cm/wDls1f70xtXf4g/5yb/AOWzV/vTG1d/iD/nJv8A5bNX+9MbV3+I
P+cm/wDls1f70xtXf4g/5yb/AOWzV/vTG1d/iD/nJv8A5bNX+9MbV3+IP+cm/wDls1f70xtXf4g/
5yb/AOWzV/vTG1d/iD/nJv8A5bNX+9MbV3+IP+cm/wDls1f70xtXf4g/5yb/AOWzV/vTG1d/iD/n
Jv8A5bNX+9MbV3+IP+cm/wDls1f70xtXf4g/5yb/AOWzV/vTG1d/iD/nJv8A5bNX+9MbV3+IP+cm
/wDls1f70xtXf4g/5yb/AOWzV/vTG1d/iD/nJv8A5bNX+9MbVTn1H/nJe/j+qyXusKrncrOIOnjI
rR0H042rIPyy/ITUU1SLV/MhWaeJxLFZKfUQSVrznk6MQd+K1r49sCvrHybon1K29ZhSq8Y67E13
Zvp7YqyXFXYq7FXYq7FXYqpz28NxEYpkDoeqnFUtfyrojmvoU+RJ/XXFVv8AhLRP98n7x/TFXf4S
0T/fJ+8f0xV3+EtE/wB8n7x/TFXf4S0T/fJ+8f0xV3+EtE/3yfvH9MVd/hLRP98n7x/TFXf4S0T/
AHyfvH9MVd/hLRP98n7x/TFXf4S0T/fJ+8f0xV3+EtE/3yfvH9MVd/hLRP8AfJ+8f0xV3+EtE/3y
fvH9MVd/hLRP98n7x/TFXf4S0T/fJ+8f0xV3+EtE/wB8n7x/TFXf4S0T/fJ+8f0xV3+EtE/3yfvH
9MVd/hLRP98n7x/TFXf4S0T/AHyfvH9MVd/hLRP98n7x/TFXf4S0T/fJ+8f0xV3+EtE/3yfvH9MV
RFtoGl27Blh5EfZ5moH0dMVTDFXYq7FXYq7FXYq7FXYq7FXYq7FXYq7FXYq7FXYq7FXYq7FXYq7F
XYq7FXYq7FXYq7FXYq7FXYq7FXYq7FXYq7FX/9k=</xapGImg:image>
              </rdf:li>
            </rdf:Alt>
          </xap:Thumbnails>
        </rdf:Description>
        <rdf:Description
           rdf:about="uuid:0360068f-1539-481e-ac6e-1c0b071f31ee">
          <xapMM:DocumentID>
uuid:8d434a98-01e1-45fc-83c3-e8798234958e</xapMM:DocumentID>
        </rdf:Description>
        <rdf:Description
           rdf:about="uuid:0360068f-1539-481e-ac6e-1c0b071f31ee">
          <dc:format>
image/svg+xml</dc:format>
          <dc:title>
            <rdf:Alt>
              <rdf:li
                 xml:lang="x-default">
netscape_doc.ai</rdf:li>
            </rdf:Alt>
          </dc:title>
        </rdf:Description>
      </rdf:RDF>
    </x:xmpmeta>
    <xpacket>end='w'    </xpacket>
  </metadata>
  <g
     id="Layer_3">
    <path
       style="opacity:0.2;"
       d="M44.5,17.527h-0.256h-33.64l32.735-8.771c0.188-0.051,0.346-0.171,0.443-0.341     c0.097-0.169,0.123-0.365,0.072-0.554l-1.08-4.032c-0.048-0.185-0.174-0.348-0.341-0.444c-0.169-0.097-0.366-0.123-0.554-0.072     L41.633,3.38c0,0,0.041,0.021,0.051,0.027c-0.27,0.034-0.743,0.159-1.664,0.406L4.088,13.439     c-0.188,0.05-0.345,0.171-0.443,0.339c-0.065,0.114-0.099,0.238-0.099,0.365c0,0.064,0.008,0.128,0.025,0.19l1.073,4.002v4.095     c0,0.402,0.327,0.729,0.729,0.729h1.524v21.457c0,0.366,0.273,0.678,0.636,0.725l0.22,0.027c0.238,0.029,0.863,0.096,1.593,0.096     h32.758c1.35,0,2.447-1.114,2.447-2.484V23.155c0.378-0.027,0.68-0.34,0.68-0.724v-4.174     C45.231,17.855,44.903,17.527,44.5,17.527z"
       id="path551" />
    <path
       style="opacity:0.2;"
       d="M44.112,17.139h-0.257h-33.64L42.95,8.367c0.188-0.05,0.346-0.171,0.443-0.341     c0.097-0.168,0.123-0.365,0.073-0.554L42.386,3.44c-0.049-0.185-0.173-0.347-0.341-0.444c-0.169-0.097-0.365-0.123-0.554-0.072     l-0.248,0.066c0,0,0.042,0.021,0.052,0.026c-0.271,0.035-0.743,0.159-1.664,0.406L3.699,13.051     c-0.188,0.05-0.345,0.171-0.443,0.339c-0.065,0.114-0.098,0.239-0.098,0.365c0,0.063,0.008,0.127,0.025,0.19l1.073,4.003v4.093     c0,0.403,0.328,0.73,0.73,0.73H6.51v21.457c0,0.366,0.273,0.677,0.636,0.725l0.219,0.027c0.238,0.029,0.863,0.096,1.593,0.096     h32.757c1.351,0,2.448-1.115,2.448-2.484V22.767c0.378-0.027,0.679-0.34,0.679-0.725v-4.173     C44.842,17.466,44.515,17.139,44.112,17.139z"
       id="path552" />
    <path
       d="M43.723,16.75h-0.256H9.826l32.735-8.771c0.188-0.051,0.346-0.172,0.443-0.341c0.097-0.169,0.123-0.365,0.072-0.554     l-1.08-4.032c-0.049-0.186-0.174-0.348-0.341-0.444c-0.169-0.097-0.365-0.123-0.554-0.072l-0.248,0.067     c0,0,0.042,0.021,0.052,0.026c-0.271,0.034-0.743,0.159-1.664,0.406L3.311,12.662c-0.188,0.05-0.345,0.171-0.443,0.339     c-0.065,0.114-0.098,0.239-0.098,0.365c0,0.063,0.008,0.128,0.025,0.19l1.073,4.002v4.094c0,0.402,0.328,0.73,0.73,0.73h1.524     V43.84c0,0.366,0.273,0.677,0.636,0.724l0.22,0.028c0.238,0.029,0.863,0.095,1.592,0.095h32.757c1.351,0,2.448-1.114,2.448-2.484     V22.377c0.378-0.027,0.679-0.339,0.679-0.725v-4.173C44.453,17.077,44.125,16.75,43.723,16.75z"
       id="path553" />
    <path
       d="M8.569,18.637c-1.135,0-2.059,0.94-2.059,2.095V43.84c0,0.172,0.127,0.316,0.297,0.339l0.219,0.028     c0.243,0.029,0.84,0.091,1.542,0.091h32.757c1.136,0,2.06-0.94,2.06-2.096v-21.47c0-1.155-0.924-2.095-2.06-2.095H8.569z"
       id="path554" />
    <path
       style="fill:#FFFFFF;"
       d="M7.102,43.614c0,0,0.657,0.086,1.467,0.086h32.757c0.81,0,1.467-0.671,1.467-1.498v-21.47     c0-0.828-0.657-1.499-1.467-1.499H8.569c-0.81,0-1.467,0.671-1.467,1.499V43.614z"
       id="path555" />
    <linearGradient
       id="XMLID_7_"
       gradientUnits="userSpaceOnUse"
       x1="24.9478"
       y1="49.2568"
       x2="24.9478"
       y2="21.9475">
      <stop
         offset="0.0056"
         style="stop-color:#FFFFFF"
         id="stop557" />
      <stop
         offset="0.045"
         style="stop-color:#F8F8FA"
         id="stop558" />
      <stop
         offset="0.1027"
         style="stop-color:#E4E4EC"
         id="stop559" />
      <stop
         offset="0.1713"
         style="stop-color:#C4C4D4"
         id="stop560" />
      <stop
         offset="0.1854"
         style="stop-color:#BDBDCF"
         id="stop561" />
      <stop
         offset="0.1896"
         style="stop-color:#BEBED0"
         id="stop562" />
      <stop
         offset="0.2751"
         style="stop-color:#CACAD8"
         id="stop563" />
      <stop
         offset="0.3595"
         style="stop-color:#CECEDB"
         id="stop564" />
      <stop
         offset="0.7865"
         style="stop-color:#E9E9EF"
         id="stop565" />
      <a:midPointStop
         offset="0.0056"
         style="stop-color:#FFFFFF"
         id="midPointStop566" />
      <a:midPointStop
         offset="0.625"
         style="stop-color:#FFFFFF"
         id="midPointStop567" />
      <a:midPointStop
         offset="0.1854"
         style="stop-color:#BDBDCF"
         id="midPointStop568" />
      <a:midPointStop
         offset="0.2954"
         style="stop-color:#BDBDCF"
         id="midPointStop569" />
      <a:midPointStop
         offset="0.3595"
         style="stop-color:#CECEDB"
         id="midPointStop570" />
      <a:midPointStop
         offset="0.5"
         style="stop-color:#CECEDB"
         id="midPointStop571" />
      <a:midPointStop
         offset="0.7865"
         style="stop-color:#E9E9EF"
         id="midPointStop572" />
    </linearGradient>
    <path
       style="opacity:0.8;fill:url(#XMLID_7_);"
       d="M7.102,43.614c0,0,0.657,0.086,1.467,0.086h32.757     c0.81,0,1.467-0.671,1.467-1.498v-21.47c0-0.828-0.657-1.499-1.467-1.499H8.569c-0.81,0-1.467,0.671-1.467,1.499V43.614z"
       id="path573" />
    <path
       style="opacity:0.5;fill:#FFFFFF;"
       d="M41.326,19.233H8.569c-0.81,0-1.467,0.671-1.467,1.499v22.882c0,0,0.657,0.086,1.467,0.086h32.757     c0.81,0,1.467-0.671,1.467-1.498v-21.47C42.793,19.904,42.136,19.233,41.326,19.233z M41.77,42.202     c0,0.262-0.199,0.474-0.443,0.474H8.569c-0.157,0-0.303-0.004-0.443-0.01c0-1.741,0-21.934,0-21.934     c0-0.261,0.199-0.475,0.443-0.475h32.757c0.244,0,0.443,0.213,0.443,0.475V42.202z"
       id="path574" />
    <linearGradient
       id="XMLID_8_"
       gradientUnits="userSpaceOnUse"
       x1="24.9473"
       y1="21.0483"
       x2="24.9473"
       y2="23.0999">
      <stop
         offset="0"
         style="stop-color:#616161"
         id="stop576" />
      <stop
         offset="0.1569"
         style="stop-color:#88888A"
         id="stop577" />
      <stop
         offset="0.326"
         style="stop-color:#ABABAE"
         id="stop578" />
      <stop
         offset="0.4963"
         style="stop-color:#C6C6CA"
         id="stop579" />
      <stop
         offset="0.6657"
         style="stop-color:#D9D9DF"
         id="stop580" />
      <stop
         offset="0.834"
         style="stop-color:#E5E5EB"
         id="stop581" />
      <stop
         offset="1"
         style="stop-color:#E9E9EF"
         id="stop582" />
      <a:midPointStop
         offset="0"
         style="stop-color:#616161"
         id="midPointStop583" />
      <a:midPointStop
         offset="0.2954"
         style="stop-color:#616161"
         id="midPointStop584" />
      <a:midPointStop
         offset="1"
         style="stop-color:#E9E9EF"
         id="midPointStop585" />
    </linearGradient>
    <path
       style="opacity:0.8;fill:url(#XMLID_8_);"
       d="M7.102,23.682c0,0,0.657,0.016,1.467,0.016h32.757     c0.81,0,1.467-0.123,1.467-0.274v-3.917c0-0.15-0.657-0.273-1.467-0.273H8.569c-0.81,0-1.467,0.123-1.467,0.273V23.682z"
       id="path586" />
    <path
       d="M43.467,17.139H4.597c-0.188,0-0.341,0.153-0.341,0.341v4.173c0,0.188,0.153,0.341,0.341,0.341h39.125     c0.189,0,0.342-0.153,0.342-0.341v-4.173c0-0.188-0.152-0.341-0.342-0.341H43.467z"
       id="path587" />
    <linearGradient
       id="XMLID_9_"
       gradientUnits="userSpaceOnUse"
       x1="24.1597"
       y1="18.8677"
       x2="24.1597"
       y2="20.5342">
      <stop
         offset="0"
         style="stop-color:#FFFFFF"
         id="stop589" />
      <stop
         offset="1"
         style="stop-color:#E9E9EF"
         id="stop590" />
      <a:midPointStop
         offset="0"
         style="stop-color:#FFFFFF"
         id="midPointStop591" />
      <a:midPointStop
         offset="0.5"
         style="stop-color:#FFFFFF"
         id="midPointStop592" />
      <a:midPointStop
         offset="1"
         style="stop-color:#E9E9EF"
         id="midPointStop593" />
    </linearGradient>
    <rect
       x="4.854"
       y="17.735"
       style="fill:url(#XMLID_9_);"
       width="38.613"
       height="3.661"
       id="rect594" />
    <linearGradient
       id="XMLID_10_"
       gradientUnits="userSpaceOnUse"
       x1="311.2227"
       y1="17.458"
       x2="311.2227"
       y2="23.2261"
       gradientTransform="matrix(1 0 0.2679 1 -292.7053 0)">
      <stop
         offset="0"
         style="stop-color:#CECEDB"
         id="stop596" />
      <stop
         offset="0.2977"
         style="stop-color:#828282"
         id="stop597" />
      <stop
         offset="1"
         style="stop-color:#000000"
         id="stop598" />
      <a:midPointStop
         offset="0"
         style="stop-color:#CECEDB"
         id="midPointStop599" />
      <a:midPointStop
         offset="0.5"
         style="stop-color:#CECEDB"
         id="midPointStop600" />
      <a:midPointStop
         offset="0.2977"
         style="stop-color:#828282"
         id="midPointStop601" />
      <a:midPointStop
         offset="0.5"
         style="stop-color:#828282"
         id="midPointStop602" />
      <a:midPointStop
         offset="1"
         style="stop-color:#000000"
         id="midPointStop603" />
    </linearGradient>
    <path
       style="fill:url(#XMLID_10_);"
       d="M7.762,21.396h3.662l-1.627-3.661H6.136L7.762,21.396 M24.775,17.735h-3.66l1.626,3.661     h3.661L24.775,17.735 M17.286,17.735h-3.662l1.627,3.661h3.662L17.286,17.735 M39.756,17.735h-3.663l1.628,3.661h3.661     L39.756,17.735 M32.266,17.735h-3.662l1.627,3.661h3.664L32.266,17.735z"
       id="path604" />
    <path
       d="M41.203,2.911l-0.248,0.067c0.001,0,0.001,0,0.001,0L3.411,13.038c-0.088,0.023-0.162,0.081-0.208,0.159     s-0.058,0.171-0.034,0.258l1.081,4.033c0.049,0.182,0.236,0.29,0.418,0.241L42.461,7.603c0.182-0.049,0.29-0.236,0.24-0.418     l-1.079-4.032c-0.023-0.087-0.081-0.162-0.159-0.208C41.384,2.9,41.291,2.888,41.203,2.911z"
       id="path605" />
    <linearGradient
       id="XMLID_11_"
       gradientUnits="userSpaceOnUse"
       x1="22.6689"
       y1="9.3193"
       x2="23.1841"
       y2="11.2419">
      <stop
         offset="0"
         style="stop-color:#FFFFFF"
         id="stop607" />
      <stop
         offset="1"
         style="stop-color:#CECEDB"
         id="stop608" />
      <a:midPointStop
         offset="0"
         style="stop-color:#FFFFFF"
         id="midPointStop609" />
      <a:midPointStop
         offset="0.5"
         style="stop-color:#FFFFFF"
         id="midPointStop610" />
      <a:midPointStop
         offset="1"
         style="stop-color:#CECEDB"
         id="midPointStop611" />
    </linearGradient>
    <polygon
       style="fill:url(#XMLID_11_);"
       points="4.761,17.085 42.06,7.091 41.111,3.555 3.814,13.548 "
       id="polygon612" />
    <linearGradient
       id="XMLID_12_"
       gradientUnits="userSpaceOnUse"
       x1="22.3667"
       y1="7.8496"
       x2="24.2355"
       y2="14.8243">
      <stop
         offset="0"
         style="stop-color:#CECEDB"
         id="stop614" />
      <stop
         offset="0.0054"
         style="stop-color:#CBCBD7"
         id="stop615" />
      <stop
         offset="0.0705"
         style="stop-color:#A5A5AD"
         id="stop616" />
      <stop
         offset="0.1338"
         style="stop-color:#87878C"
         id="stop617" />
      <stop
         offset="0.1941"
         style="stop-color:#727274"
         id="stop618" />
      <stop
         offset="0.2502"
         style="stop-color:#656566"
         id="stop619" />
      <stop
         offset="0.2977"
         style="stop-color:#616161"
         id="stop620" />
      <stop
         offset="1"
         style="stop-color:#000000"
         id="stop621" />
      <a:midPointStop
         offset="0"
         style="stop-color:#CECEDB"
         id="midPointStop622" />
      <a:midPointStop
         offset="0.3269"
         style="stop-color:#CECEDB"
         id="midPointStop623" />
      <a:midPointStop
         offset="0.2977"
         style="stop-color:#616161"
         id="midPointStop624" />
      <a:midPointStop
         offset="0.5"
         style="stop-color:#616161"
         id="midPointStop625" />
      <a:midPointStop
         offset="1"
         style="stop-color:#000000"
         id="midPointStop626" />
    </linearGradient>
    <path
       style="fill:url(#XMLID_12_);"
       d="M7.57,16.333l3.538-0.947l-1.571-3.371l-3.537,0.948L7.57,16.333 M24.004,8.139     l-3.537,0.948l1.571,3.37l3.538-0.948L24.004,8.139 M16.77,10.077l-3.537,0.948l1.572,3.37l3.536-0.949L16.77,10.077      M38.473,4.262l-3.535,0.947l1.571,3.37l3.537-0.947L38.473,4.262 M31.239,6.201l-3.538,0.946l1.572,3.371l3.537-0.948     L31.239,6.201z"
       id="path627" />
    <polyline
       id="_x3C_Slice_x3E_"
       style="fill:none;"
       points="0,48 0,0 48,0 48,48 " />
  </g>
</svg>
