<?xml version="1.0" encoding="UTF-8" standalone="no"?>
<!DOCTYPE svg PUBLIC "-//W3C//DTD SVG 20010904//EN"
"http://www.w3.org/TR/2001/REC-SVG-20010904/DTD/svg10.dtd">
<svg
   sodipodi:docname="gsnes9x-icon.svg"
   height="60.0000000"
   sodipodi:version="0.32"
   width="60.0000000"
   _SVGFile__filename="scalable/apps/gsnes9x-icon.svg"
   version="1.0"
   y="0"
   x="0"
   inkscape:version="0.39"
   id="svg1"
   sodipodi:docbase="/home/danny/work/flat/newscale/apps"
   xmlns="http://www.w3.org/2000/svg"
   xmlns:cc="http://web.resource.org/cc/"
   xmlns:inkscape="http://www.inkscape.org/namespaces/inkscape"
   xmlns:sodipodi="http://sodipodi.sourceforge.net/DTD/sodipodi-0.dtd"
   xmlns:rdf="http://www.w3.org/1999/02/22-rdf-syntax-ns#"
   xmlns:dc="http://purl.org/dc/elements/1.1/"
   xmlns:xlink="http://www.w3.org/1999/xlink">
  <sodipodi:namedview
     bordercolor="#666666"
     inkscape:pageshadow="2"
     inkscape:window-y="0"
     pagecolor="#ffffff"
     inkscape:window-height="699"
     inkscape:zoom="6.9465337"
     inkscape:window-x="0"
     borderopacity="1.0"
     inkscape:cx="35.507787"
     inkscape:cy="26.366827"
     inkscape:window-width="1024"
     inkscape:pageopacity="0.0"
     id="base" />
  <defs
     id="defs3" />
  <g
     id="g1579"
     transform="translate(8.670776e-2,-9.847790e-2)">
    <path
       style="fill:none;fill-opacity:0.75000000;fill-rule:evenodd;stroke:#333333;stroke-width:3.0359600;stroke-linecap:round;stroke-linejoin:round;stroke-dasharray:3.0359600 3.0359600 ;stroke-dashoffset:0.0000000;stroke-opacity:1.0000000;"
       d="M -45.043292,19.028418 C -41.989510,4.7774324 -38.993527,1.6250146 -38.993527,1.6250146"
       sodipodi:nodetypes="cc"
       transform="matrix(0.717407,0.738138,-0.738138,0.717407,83.47703,42.02607)"
       sodipodi:stroke-cmyk="(0 0 0 0.8)"
       id="path1059" />
    <rect
       style="font-size:12.000000;fill:#b3b3b3;fill-opacity:1.0000000;fill-rule:evenodd;stroke:#333333;stroke-width:3.0359600;stroke-opacity:1.0000000;"
       transform="matrix(0.717407,0.738138,-0.738138,0.717407,83.47703,42.02607)"
       height="17.634695"
       width="33.829823"
       sodipodi:stroke-cmyk="(0 0 0 0.8)"
       y="18.612452"
       x="-61.901375"
       id="rect1049" />
    <path
       transform="matrix(0.717407,0.738138,-0.738138,0.717407,111.4389,70.79597)"
       style="font-size:12.000000;fill:#7f7f7f;fill-opacity:1.0000000;fill-rule:evenodd;stroke:#333333;stroke-width:3.0359600;stroke-linejoin:round;stroke-opacity:1.0000000;"
       d="M -51.824407,29.229258 C -51.824407,35.884375 -57.225662,41.285630 -63.880779,41.285630 C -70.535897,41.285630 -75.937152,35.884375 -75.937152,29.229258 C -75.937152,22.574140 -70.535897,17.172885 -63.880779,17.172885 C -57.225662,17.172885 -51.824407,22.574140 -51.824407,29.229258 z "
       id="path1048" />
    <path
       transform="matrix(0.717407,0.738138,-0.738138,0.717407,83.47703,42.02607)"
       style="font-size:12.000000;fill:#7f7f7f;fill-opacity:1.0000000;fill-rule:evenodd;stroke:#333333;stroke-width:3.0359552;stroke-linejoin:round;stroke-miterlimit:4.0000000;stroke-opacity:1.0000000;"
       d="M -51.824407,29.229258 C -51.824407,35.884375 -57.225662,41.285630 -63.880779,41.285630 C -70.535897,41.285630 -75.937152,35.884375 -75.937152,29.229258 C -75.937152,22.574140 -70.535897,17.172885 -63.880779,17.172885 C -57.225662,17.172885 -51.824407,22.574140 -51.824407,29.229258 z "
       id="path1047" />
    <g
       id="g1572"
       transform="translate(49.97337,-9.218615e-2)">
      <path
         style="font-size:12.000000;fill:#4c4c4c;fill-rule:evenodd;stroke:#4c4c4c;stroke-width:1.2500000;stroke-linejoin:round;stroke-opacity:1.0000000;"
         d="M -8.5960986,42.096329 C -9.5712456,43.044088 -11.131865,43.021860 -12.079624,42.046714 C -13.027382,41.071567 -13.005154,39.510949 -12.030008,38.563190 C -11.054862,37.615431 -9.4942426,37.637659 -8.5464836,38.612805 C -7.5987256,39.587952 -7.6209526,41.148570 -8.5960986,42.096329 z "
         id="path1052"
         sodipodi:stroke-cmyk="(0.0000000 0.0000000 0.0000000 0.70196080)" />
      <path
         style="font-size:12.000000;fill:#4c4c4c;fill-rule:evenodd;stroke:#4c4c4c;stroke-width:1.2500000;stroke-linejoin:round;stroke-opacity:1.0000000;"
         d="M 0.15358068,50.846009 C -0.82156532,51.793768 -2.3821843,51.771540 -3.3299433,50.796394 C -4.2777013,49.821247 -4.2554733,48.260629 -3.2803273,47.312870 C -2.3051813,46.365111 -0.74456232,46.387339 0.20319568,47.362485 C 1.1509547,48.337632 1.1287277,49.898250 0.15358068,50.846009 z "
         id="path1053"
         sodipodi:stroke-cmyk="(0.0000000 0.0000000 0.0000000 0.70196080)" />
      <path
         style="font-size:12.000000;fill:#4c4c4c;fill-rule:evenodd;stroke:#4c4c4c;stroke-width:1.2500000;stroke-linejoin:round;stroke-opacity:1.0000000;"
         d="M -8.5960988,50.846009 C -9.5712452,51.793768 -11.131864,51.771540 -12.079623,50.796394 C -13.027382,49.821247 -13.005154,48.260629 -12.030007,47.312870 C -11.054861,46.365111 -9.4942426,46.387339 -8.5464838,47.362485 C -7.5987250,48.337632 -7.6209525,49.898250 -8.5960988,50.846009 z "
         id="path1054"
         sodipodi:stroke-cmyk="(0.0000000 0.0000000 0.0000000 0.70196080)" />
      <path
         style="font-size:12.000000;fill:#4c4c4c;fill-rule:evenodd;stroke:#4c4c4c;stroke-width:1.2500000;stroke-linejoin:round;stroke-opacity:1.0000000;"
         d="M 0.15358068,42.096329 C -0.82156532,43.044088 -2.3821843,43.021860 -3.3299433,42.046714 C -4.2777013,41.071567 -4.2554733,39.510949 -3.2803273,38.563190 C -2.3051813,37.615431 -0.74456232,37.637659 0.20319568,38.612805 C 1.1509547,39.587952 1.1287277,41.148570 0.15358068,42.096329 z "
         id="path1055"
         sodipodi:stroke-cmyk="(0.0000000 0.0000000 0.0000000 0.70196080)" />
    </g>
    <path
       style="font-size:12.000000;fill:#4c4c4c;fill-rule:evenodd;stroke:#4c4c4c;stroke-width:1.2500000;stroke-linejoin:round;stroke-miterlimit:4.0000000;stroke-opacity:1.0000000;"
       d="M 20.877594,9.1321837 C 20.480149,8.7232545 19.830977,8.7140092 19.422049,9.1114527 L 16.123494,12.317365 L 12.917582,9.0188110 C 12.520138,8.6098826 11.870965,8.6006365 11.462037,8.9980800 L 9.3629564,11.038206 C 8.9540280,11.435650 8.9447819,12.084823 9.3422254,12.493751 L 12.548138,15.792305 L 9.2495838,18.998218 C 8.8406546,19.395661 8.8314093,20.044834 9.2288528,20.453763 L 11.268979,22.552843 C 11.666424,22.961772 12.315596,22.971017 12.724524,22.573574 L 16.023079,19.367661 L 19.228991,22.666215 C 19.626436,23.075145 20.275608,23.084390 20.684536,22.686946 L 22.783616,20.646820 C 23.192546,20.249378 23.201791,19.600204 22.804347,19.191275 L 19.598435,15.892721 L 22.896989,12.686809 C 23.305918,12.289366 23.315163,11.640192 22.917720,11.231264 L 20.877594,9.1321837 z "
       sodipodi:stroke-cmyk="(0.0000000 0.0000000 0.0000000 0.70196080)"
       id="path1058" />
    <path
       id="path837"
       style="font-size:12.000000;font-weight:900;fill:#333333;stroke-width:1.0000000pt;font-family:VAG Rounded Black SSi;"
       d="M 19.975956,47.037038 L 21.921207,44.317870 C 22.158261,43.962286 22.363941,43.672939 22.538248,43.449828 C 22.719525,43.226717 22.925207,43.048926 23.155290,42.916453 C 23.392344,42.777009 23.653804,42.707286 23.939664,42.707286 C 24.511386,42.707286 24.957608,42.871133 25.278331,43.198828 C 25.599053,43.519550 25.759414,43.899536 25.759414,44.338787 C 25.759414,44.791981 25.543275,45.304439 25.110998,45.876162 L 22.067623,49.944454 L 25.780331,54.964454 C 26.066192,55.347927 26.261414,55.644245 26.365998,55.853413 C 26.470582,56.062579 26.522874,56.327524 26.522874,56.648245 C 26.522874,57.150245 26.362512,57.561607 26.041789,57.882328 C 25.721068,58.203051 25.320164,58.363413 24.839081,58.363413 C 24.511386,58.363413 24.218553,58.290204 23.960582,58.143788 C 23.702608,57.997372 23.430693,57.728940 23.144830,57.338496 L 19.975956,52.966912 L 16.807080,57.338496 C 16.521220,57.721969 16.249302,57.990398 15.991331,58.143788 C 15.740331,58.290204 15.447496,58.363413 15.112830,58.363413 C 14.631747,58.363413 14.227359,58.203051 13.899664,57.882328 C 13.578941,57.554635 13.418581,57.143274 13.418581,56.648245 C 13.418581,56.341468 13.467385,56.086982 13.564997,55.884788 C 13.662607,55.675620 13.864803,55.368842 14.171581,54.964454 L 17.873830,49.944454 L 14.830455,45.876162 C 14.405150,45.311412 14.192496,44.798953 14.192496,44.338787 C 14.192496,43.899536 14.352858,43.519550 14.673581,43.198828 C 14.994302,42.871133 15.440525,42.707286 16.012248,42.707286 C 16.437553,42.707286 16.782677,42.836273 17.047623,43.094245 C 17.319540,43.345245 17.643747,43.753120 18.020248,44.317870 L 19.975956,47.037038 z M 13.198956,47.737746 C 13.198956,48.407079 13.118775,49.065953 12.958413,49.714371 C 12.798052,50.355816 12.571455,50.990286 12.278622,51.617787 C 11.992762,52.238315 11.672038,52.820496 11.316455,53.364328 C 10.967844,53.901191 10.591343,54.420620 10.186955,54.922620 C 9.2945112,56.045149 8.6251778,56.850439 8.1789555,57.338496 C 7.7327333,57.826551 7.3666918,58.154245 7.0808293,58.321579 C 6.7949687,58.495884 6.5091080,58.583038 6.2232473,58.583038 C 5.7073019,58.583038 5.2994280,58.394788 4.9996220,58.018287 C 4.6998160,57.641788 4.5499139,57.265287 4.5499139,56.888788 C 4.5499139,56.561093 4.6544959,56.261287 4.8636634,55.989371 C 5.0798028,55.717454 5.5190515,55.222426 6.1814131,54.504287 C 6.8437747,53.779176 7.3771495,53.116816 7.7815393,52.517204 L 7.7397051,52.475371 C 7.3910948,52.586927 6.9413849,52.642705 6.3905806,52.642705 C 5.5748293,52.642705 4.8392604,52.416106 4.1838724,51.962912 C 3.5354543,51.502746 3.0264825,50.899648 2.6569552,50.153620 C 2.2874278,49.400620 2.1026633,48.626704 2.1026633,47.831870 C 2.1026633,47.092815 2.2386218,46.399079 2.5105390,45.750661 C 2.7824543,45.095273 3.1589552,44.527037 3.6400381,44.045953 C 4.1280946,43.564870 4.7207331,43.188371 5.4179554,42.916453 C 6.1151776,42.637565 6.8612059,42.498120 7.6560384,42.498120 C 8.7576505,42.498120 9.7302740,42.717745 10.573914,43.156994 C 11.417553,43.596245 12.065969,44.216772 12.519163,45.018578 C 12.972359,45.813412 13.198956,46.719800 13.198956,47.737746 z M 9.6012890,47.831870 C 9.6012890,47.483260 9.5141364,47.159051 9.3398295,46.859245 C 9.1655244,46.552467 8.9249838,46.308439 8.6182060,46.127162 C 8.3184000,45.945883 7.9976768,45.855245 7.6560384,45.855245 C 7.3143999,45.855245 6.9901909,45.945883 6.6834131,46.127162 C 6.3836071,46.308439 6.1465524,46.552467 5.9722473,46.859245 C 5.7979404,47.159051 5.7107878,47.483260 5.7107878,47.831870 C 5.7107878,48.368731 5.9025242,48.832384 6.2859969,49.222829 C 6.6764413,49.606301 7.1331212,49.798038 7.6560384,49.798038 C 8.1928991,49.798038 8.6495808,49.606301 9.0260799,49.222829 C 9.4095526,48.832384 9.6012890,48.368731 9.6012890,47.831870 z " />
  </g>
  <metadata
     id="metadata14">
    <rdf:RDF
       id="RDF15">
      <cc:Work
         rdf:about=""
         id="Work16">
        <dc:title
           id="title17">Part of the Flat Icon Collection (Thu Aug 26 14:31:40 2004)</dc:title>
        <dc:description
           id="description19" />
        <dc:subject
           id="subject20">
          <rdf:Bag
             id="Bag21">
            <rdf:li
               id="li22" />
          </rdf:Bag>
        </dc:subject>
        <dc:publisher
           id="publisher23">
          <cc:Agent
             rdf:about=""
             id="Agent24">
            <dc:title
               id="title25" />
          </cc:Agent>
        </dc:publisher>
        <dc:creator
           id="creator26">
          <cc:Agent
             rdf:about=""
             id="Agent27">
            <dc:title
               id="title28">Danny Allen</dc:title>
          </cc:Agent>
        </dc:creator>
        <dc:rights
           id="rights30">
          <cc:Agent
             rdf:about=""
             id="Agent31">
            <dc:title
               id="title32">Danny Allen</dc:title>
          </cc:Agent>
        </dc:rights>
        <dc:date
           id="date34" />
        <dc:format
           id="format35">image/svg+xml</dc:format>
        <dc:type
           rdf:resource="http://purl.org/dc/dcmitype/StillImage"
           id="type37" />
        <cc:license
           rdf:resource="http://creativecommons.org/licenses/LGPL/2.1/"
           id="license38">
          <dc:date
             id="date39" />
        </cc:license>
        <dc:language
           id="language40">en</dc:language>
      </cc:Work>
    </rdf:RDF>
  </metadata>
</svg>
